<svg xmlns="http://www.w3.org/2000/svg" version="1.1" xmlns:xlink="http://www.w3.org/1999/xlink" xmlns:svgjs="http://svgjs.com/svgjs" width="400" height="400"><svg id="SvgjsSvg1002" xmlns="http://www.w3.org/2000/svg" xmlns:xlink="http://www.w3.org/1999/xlink" width="400" height="400" viewBox="0, 0, 400,400"><g id="SvgjsG1001"><path id="SvgjsPath1000" d="M96.209 9.583 C 95.198 10.069,82.921 22.789,68.926 37.850 C 54.931 52.912,43.433 65.234,43.375 65.234 C 43.317 65.234,38.067 59.719,31.708 52.977 C 18.286 38.747,14.554 36.748,7.867 40.206 C -4.061 46.374,-1.999 52.964,18.750 74.990 C 38.485 95.940,41.680 97.941,49.021 93.945 C 52.287 92.167,111.505 28.512,112.955 25.220 C 117.448 15.020,106.386 4.691,96.209 9.583 M147.063 18.746 C 139.443 23.392,139.490 35.478,147.146 39.667 C 151.047 41.802,390.457 41.747,394.370 39.611 C 402.102 35.389,401.999 22.141,394.206 18.443 C 389.617 16.265,150.651 16.559,147.063 18.746 M147.672 63.868 C 139.080 68.185,139.200 81.250,147.868 85.185 C 151.058 86.633,153.996 86.685,232.842 86.702 L 314.513 86.719 317.941 84.961 C 326.354 80.647,326.337 68.164,317.913 63.868 C 313.774 61.758,151.873 61.758,147.672 63.868 M97.266 149.500 C 94.590 150.741,90.046 155.390,62.889 184.673 L 43.412 205.674 31.667 193.510 C 18.713 180.095,18.153 179.686,12.747 179.690 C 3.932 179.697,-1.539 188.269,2.169 196.262 C 4.620 201.546,36.273 234.195,39.888 235.168 C 44.131 236.311,48.098 235.407,51.344 232.557 C 57.320 227.309,111.419 168.421,112.718 165.750 C 117.392 156.131,106.858 145.053,97.266 149.500 M150.215 157.784 C 141.261 159.933,138.199 171.376,144.808 177.986 L 147.682 180.859 269.606 181.062 C 380.511 181.246,391.771 181.150,394.190 180.002 C 401.998 176.297,402.111 163.053,394.370 158.827 C 391.622 157.326,156.309 156.321,150.215 157.784 M146.484 204.672 C 139.716 209.143,139.714 220.816,146.481 224.998 C 149.022 226.569,149.826 226.581,233.445 226.378 L 317.843 226.172 319.933 224.219 C 325.749 218.785,325.749 210.903,319.933 205.469 L 317.843 203.516 233.336 203.319 C 150.223 203.127,148.789 203.149,146.484 204.672 M50.391 273.478 C 15.689 278.902,-6.462 311.932,1.499 346.384 C 15.166 405.528,99.830 407.326,116.553 348.828 C 128.359 307.534,92.655 266.872,50.391 273.478 M70.241 299.136 C 95.167 306.894,102.708 338.800,84.030 357.478 C 62.015 379.493,24.123 363.734,24.134 332.568 C 24.143 308.482,47.005 291.905,70.241 299.136 M147.672 299.025 C 143.629 301.056,141.406 304.866,141.406 309.766 C 141.406 314.665,143.629 318.475,147.672 320.507 C 151.376 322.368,388.844 322.655,393.189 320.804 C 402.175 316.975,402.514 303.436,393.734 299.025 C 389.522 296.908,151.884 296.908,147.672 299.025 M147.868 344.503 C 139.493 348.305,139.020 360.725,147.063 365.629 C 150.800 367.908,313.463 368.089,317.913 365.819 C 326.337 361.523,326.354 349.041,317.941 344.727 L 314.513 342.969 232.842 342.986 C 153.996 343.002,151.058 343.055,147.868 344.503 " stroke="none" fill="#000000" fill-rule="evenodd"></path></g></svg><style>@media (prefers-color-scheme: light) { :root { filter: none; } }
@media (prefers-color-scheme: dark) { :root { filter: invert(100%); } }
</style></svg>